<svg width="30" height="30" viewBox="0 0 30 30" fill="none" xmlns="http://www.w3.org/2000/svg">
<path d="M22.5 23.575H21.55C20.55 23.575 19.6 23.9625 18.9 24.6625L16.7625 26.7751C15.7875 27.7376 14.2 27.7376 13.225 26.7751L11.0875 24.6625C10.3875 23.9625 9.425 23.575 8.4375 23.575H7.5C5.425 23.575 3.75 21.9125 3.75 19.8625V6.22498C3.75 4.17498 5.425 2.51251 7.5 2.51251H22.5C24.575 2.51251 26.25 4.17498 26.25 6.22498V19.8625C26.25 21.9 24.575 23.575 22.5 23.575Z" stroke="#181D27" stroke-width="2" stroke-miterlimit="10" stroke-linecap="round" stroke-linejoin="round"/>
<path d="M8.75 11.45C8.75 10.2875 9.7 9.33746 10.8625 9.33746C12.025 9.33746 12.975 10.2875 12.975 11.45C12.975 13.8 9.63749 14.05 8.89999 16.2875C8.74999 16.75 9.1375 17.2125 9.625 17.2125H12.975" stroke="#181D27" stroke-width="2" stroke-linecap="round" stroke-linejoin="round"/>
<path d="M20.05 17.2V10.0625C20.05 9.73754 19.8375 9.44996 19.525 9.36246C19.2125 9.27496 18.875 9.39996 18.7 9.67496C17.8 11.125 16.825 12.775 15.975 14.225C15.8375 14.4625 15.8375 14.775 15.975 15.0125C16.1125 15.25 16.375 15.3999 16.6625 15.3999H21.25" stroke="#181D27" stroke-width="2" stroke-linecap="round" stroke-linejoin="round"/>
</svg>
