<svg width="30" height="31" viewBox="0 0 30 31" fill="none" xmlns="http://www.w3.org/2000/svg">
<path d="M15 28.135C21.9036 28.135 27.5 22.5386 27.5 15.635C27.5 8.73145 21.9036 3.13501 15 3.13501C8.09644 3.13501 2.5 8.73145 2.5 15.635C2.5 22.5386 8.09644 28.135 15 28.135Z" stroke="#181D27" stroke-width="2" stroke-linecap="round" stroke-linejoin="round"/>
<path d="M10.0125 18.7726C10.2375 19.1476 10.5125 19.4976 10.825 19.8101C13.125 22.1101 16.8625 22.1101 19.175 19.8101C20.1125 18.8726 20.65 17.685 20.825 16.4725" stroke="#181D27" stroke-width="2" stroke-linecap="round" stroke-linejoin="round"/>
<path d="M9.17499 14.7975C9.34999 13.5725 9.8875 12.3975 10.825 11.46C13.125 9.15999 16.8625 9.15999 19.175 11.46C19.5 11.785 19.7625 12.135 19.9875 12.4975" stroke="#181D27" stroke-width="2" stroke-linecap="round" stroke-linejoin="round"/>
<path d="M9.77499 22.11V18.7725H13.1125" stroke="#181D27" stroke-width="2" stroke-linecap="round" stroke-linejoin="round"/>
<path d="M20.225 9.16003V12.4975H16.8875" stroke="#181D27" stroke-width="2" stroke-linecap="round" stroke-linejoin="round"/>
</svg>
