<svg width="30" height="31" viewBox="0 0 30 31" fill="none" xmlns="http://www.w3.org/2000/svg">
<path d="M24.125 10.535V16.9725C24.125 20.8225 21.925 22.4725 18.625 22.4725H7.63747C7.07497 22.4725 6.53748 22.4225 6.03748 22.31C5.72498 22.26 5.42499 22.1725 5.14999 22.0725C3.27499 21.3725 2.13748 19.7475 2.13748 16.9725V10.535C2.13748 6.68499 4.33747 5.03503 7.63747 5.03503H18.625C21.425 5.03503 23.4375 6.22253 23.975 8.93503C24.0625 9.43503 24.125 9.94749 24.125 10.535Z" stroke="#181D27" stroke-width="2" stroke-miterlimit="10" stroke-linecap="round" stroke-linejoin="round"/>
<path d="M27.8764 14.2851V20.7227C27.8764 24.5727 25.6764 26.2226 22.3764 26.2226H11.3888C10.4638 26.2226 9.62636 26.0977 8.90136 25.8227C7.41386 25.2727 6.40135 24.1352 6.03885 22.3102C6.53885 22.4227 7.07635 22.4726 7.63885 22.4726H18.6264C21.9264 22.4726 24.1264 20.8227 24.1264 16.9727V10.5351C24.1264 9.94764 24.0764 9.42268 23.9764 8.93518C26.3514 9.43518 27.8764 11.1101 27.8764 14.2851Z" stroke="#181D27" stroke-width="2" stroke-miterlimit="10" stroke-linecap="round" stroke-linejoin="round"/>
<path d="M13.123 17.0599C14.9456 17.0599 16.4231 15.5824 16.4231 13.7599C16.4231 11.9373 14.9456 10.4598 13.123 10.4598C11.3005 10.4598 9.82303 11.9373 9.82303 13.7599C9.82303 15.5824 11.3005 17.0599 13.123 17.0599Z" stroke="#181D27" stroke-width="2" stroke-miterlimit="10" stroke-linecap="round" stroke-linejoin="round"/>
<path d="M5.97498 11.01V16.51" stroke="#181D27" stroke-width="2" stroke-miterlimit="10" stroke-linecap="round" stroke-linejoin="round"/>
<path d="M20.2771 11.0104V16.5104" stroke="#181D27" stroke-width="2" stroke-miterlimit="10" stroke-linecap="round" stroke-linejoin="round"/>
</svg>
