<svg width="118" height="80" viewBox="0 0 118 80" fill="none" xmlns="http://www.w3.org/2000/svg">
<path fill-rule="evenodd" clip-rule="evenodd" d="M74.6844 62.6866C87.2466 62.6866 97.4303 52.3847 97.4303 39.6766C97.4303 26.9686 87.2466 16.6667 74.6844 16.6667C69.0544 16.6667 63.9022 18.7358 59.9303 22.1635C55.9584 18.7359 50.8062 16.6667 45.1762 16.6667C32.614 16.6667 22.4303 26.9687 22.4303 39.6767C22.4303 52.3847 32.614 62.6866 45.1762 62.6866C50.8062 62.6866 55.9584 60.6175 59.9303 57.1899C63.9022 60.6174 69.0544 62.6866 74.6844 62.6866Z" fill="#ED0006"/>
<path fill-rule="evenodd" clip-rule="evenodd" d="M59.9303 57.1897C64.821 52.9693 67.9221 46.6893 67.9221 39.6765C67.9221 32.6638 64.821 26.3838 59.9303 22.1633C63.9022 18.7358 69.0544 16.6666 74.6844 16.6666C87.2466 16.6666 97.4303 26.9685 97.4303 39.6765C97.4303 52.3846 87.2466 62.6865 74.6844 62.6865C69.0544 62.6865 63.9022 60.6173 59.9303 57.1897Z" fill="#F9A000"/>
<path fill-rule="evenodd" clip-rule="evenodd" d="M59.9304 57.1896C64.821 52.9692 67.9221 46.6892 67.9221 39.6765C67.9221 32.6638 64.821 26.3839 59.9304 22.1634C55.0398 26.3839 51.9387 32.6638 51.9387 39.6765C51.9387 46.6892 55.0398 52.9692 59.9304 57.1896Z" fill="#FF5E00"/>
</svg>
