<svg width="117" height="80" viewBox="0 0 117 80" fill="none" xmlns="http://www.w3.org/2000/svg">
<path fill-rule="evenodd" clip-rule="evenodd" d="M13.5 48.2008C13.561 47.8728 13.6169 47.5551 13.6717 47.2438C13.7564 46.7625 13.8385 46.2961 13.9328 45.8298C14.3323 43.7204 14.7346 41.6138 15.1369 39.5072C15.5392 37.4006 15.9415 35.294 16.341 33.1846C16.3965 32.9175 16.4742 32.7394 16.7405 32.6948C18.8158 32.3832 20.9022 32.1605 22.9774 32.6837C24.7863 33.129 26.0515 34.4091 26.2623 35.9118C26.6951 38.9061 24.9528 41.2993 22.367 42.1565C21.002 42.6017 19.6148 42.713 18.2054 42.5794C17.8725 42.5461 17.7726 42.6351 17.7171 42.9579C17.4175 44.5942 17.1068 46.2194 16.7849 47.8446C16.7627 47.9781 16.6406 48.1896 16.563 48.1896C15.8088 48.2063 15.0669 48.2043 14.2959 48.2022C14.0345 48.2015 13.7697 48.2008 13.5 48.2008ZM18.9038 39.9414L18.9038 39.9414C19.3379 39.9532 19.7478 39.9643 20.1475 39.919C21.3016 39.7965 22.2227 39.2733 22.7443 38.1713C23.3325 36.9246 22.9108 35.6 21.801 35.2104C21.0131 34.9321 20.203 34.9878 19.3928 35.0991C19.293 35.1102 19.1598 35.2661 19.1376 35.3662C18.9824 36.1821 18.8271 37.0015 18.6661 37.8516L18.6659 37.8523C18.5392 38.5214 18.4088 39.2095 18.272 39.9301C18.4889 39.9301 18.699 39.9358 18.9037 39.9414H18.9037H18.9037H18.9038H18.9038ZM33.1761 46.0636C33.0005 46.2467 32.836 46.431 32.6753 46.6111C32.3281 47.0002 31.9982 47.3697 31.6114 47.6665C30.4461 48.5681 29.1144 48.7685 27.7716 48.1451C26.4398 47.5329 25.8961 46.3419 25.8406 44.9393C25.7185 41.9895 26.7506 39.5518 29.2254 37.8598C30.779 36.7912 32.5658 36.4684 34.4191 36.5686C35.0321 36.6047 35.6405 36.7114 36.2502 36.8184C36.5787 36.876 36.9076 36.9337 37.2379 36.9804C37.6152 37.0361 37.6707 37.2476 37.6041 37.5704C37.515 38.0359 37.425 38.501 37.3349 38.9657L37.3349 38.9657L37.3349 38.9657L37.3349 38.9658L37.3349 38.9658L37.3349 38.9658C36.9988 40.7013 36.6635 42.4328 36.3834 44.1712C36.2227 45.1665 36.1586 46.1859 36.0952 47.1951C36.0841 47.3712 36.0731 47.5469 36.0615 47.7221C36.0393 48.0783 35.9505 48.223 35.5843 48.2119C34.8963 48.1897 34.2082 48.1897 33.5202 48.2119C33.165 48.223 33.043 48.0895 33.0763 47.7444C33.1079 47.3632 33.1283 46.9707 33.1495 46.5627L33.1495 46.5626L33.1495 46.5625L33.1495 46.5624L33.1495 46.5623L33.1495 46.5623C33.158 46.3986 33.1666 46.2324 33.1761 46.0636ZM33.953 39.1844C32.8765 38.8838 31.9776 39.0953 31.223 39.7298C29.8025 40.932 29.1588 42.4904 29.2809 44.3493C29.3142 44.917 29.5361 45.4624 30.1354 45.7073C30.7347 45.9522 31.2785 45.7741 31.7446 45.3734C32.022 45.1285 32.2883 44.8502 32.4881 44.5385C33.2709 43.3402 33.4847 41.9884 33.7019 40.6153C33.7772 40.1391 33.853 39.6602 33.953 39.1844ZM49.6784 45.4178C50.2888 47.3769 51.9645 48.4678 54.9054 48.4678C56.9252 48.4121 58.9339 47.2656 60.1879 44.9058C60.8538 43.6368 61.0979 42.2788 61.0091 40.854C60.9315 39.4848 60.3877 38.3272 59.2779 37.5035C58.1126 36.6352 56.7809 36.4571 55.3604 36.613C50.6106 37.1473 48.6685 42.1897 49.6784 45.4178ZM52.8388 43.7834C52.84 43.7265 52.8413 43.67 52.8413 43.6148C52.8746 42.3347 53.1853 41.1436 53.951 40.0862C54.2951 39.6186 54.7279 39.2624 55.3049 39.1289C56.4813 38.8617 57.4468 39.5407 57.5578 40.8208C57.6909 42.3903 57.3136 43.8374 56.3259 45.0953C55.9486 45.5628 55.4714 45.8856 54.861 45.9412C53.7624 46.0414 52.93 45.2956 52.8413 44.1268C52.8338 44.0151 52.8363 43.8984 52.8388 43.7834ZM63.6504 36.8468H66.4692C66.4248 37.4479 66.3804 38.0267 66.3249 38.6166C66.4277 38.5206 66.5271 38.4258 66.6246 38.3328C66.8322 38.1346 67.031 37.9449 67.2349 37.7707C68.3336 36.8134 69.5876 36.3904 71.0414 36.6241C72.24 36.8245 73.0723 37.7039 73.2055 38.9395C73.3502 40.2251 73.1098 41.4722 72.8699 42.7166C72.8522 42.8082 72.8346 42.8997 72.8171 42.9913C72.7198 43.4967 72.6235 44.0022 72.5274 44.5073L72.5273 44.5077L72.5272 44.5082C72.3164 45.6157 72.1058 46.7216 71.8849 47.8222C71.8516 47.967 71.6851 48.1784 71.5741 48.1896C70.6197 48.2118 69.6653 48.2007 68.7109 48.1896C68.6789 48.1896 68.6469 48.1722 68.5983 48.1459L68.5983 48.1459C68.5795 48.1356 68.5581 48.1241 68.5334 48.1117C68.7109 47.1878 68.8885 46.2527 69.055 45.3177C69.3102 43.8818 69.5543 42.457 69.7763 41.021C69.8207 40.7761 69.7985 40.5201 69.7652 40.2752C69.6764 39.4181 69.0439 39.0285 68.2226 39.2845C67.4236 39.5405 66.9464 40.1639 66.558 40.854C65.9809 41.867 65.7811 42.9913 65.5814 44.1155C65.5316 44.3929 65.4823 44.6698 65.4331 44.9463L65.4324 44.95L65.4323 44.9506L65.4323 44.9507L65.4322 44.951C65.2625 45.9046 65.0935 46.8545 64.9044 47.8111C64.8711 47.9558 64.7047 48.1784 64.5937 48.1896C63.8155 48.2162 63.0302 48.2145 62.1929 48.2128H62.1923C61.9791 48.2123 61.7625 48.2118 61.5418 48.2118C62.2743 44.3827 62.9623 40.6314 63.6504 36.8468ZM79.6531 45.8742C78.4768 45.7295 77.6889 44.9058 77.7665 43.7481C78.0119 43.7481 78.2561 43.7519 78.499 43.7556C78.9811 43.763 79.4583 43.7703 79.9306 43.7481C81.0736 43.6813 82.1945 43.4921 83.2377 42.9689C84.5694 42.301 85.1909 41.199 85.091 39.7631C84.9911 38.3049 84.2032 37.2474 82.7938 36.8244C80.6852 36.1899 78.7431 36.6352 77.0896 38.0489C75.0809 39.7631 74.3263 42.0339 74.6148 44.6275C74.8146 46.4641 75.8134 47.7776 77.6334 48.2452C79.5866 48.7461 81.5065 48.4789 83.3598 47.722C83.4929 47.6663 83.6483 47.4548 83.6372 47.3213C83.6106 46.7781 83.5555 46.2349 83.5005 45.6917C83.4867 45.5559 83.473 45.4201 83.4597 45.2842C83.4232 45.2842 83.3961 45.2824 83.3753 45.2809C83.3454 45.2788 83.3285 45.2777 83.3154 45.2842C83.1933 45.3288 83.0712 45.3733 82.9603 45.4178C81.8949 45.8297 80.7962 46.0078 79.6531 45.8742ZM81.3732 40.9431C80.6963 41.2993 78.9428 41.5108 78.0883 41.3327C78.2659 39.8522 79.8307 38.6946 81.1513 39.0174C81.5952 39.1287 81.917 39.3624 81.9947 39.8411C82.0724 40.3086 81.8393 40.6982 81.3732 40.9431ZM88.8532 43.7929C88.7533 44.8837 89.5301 45.7186 90.7176 45.8744C91.8273 46.008 92.8927 45.841 93.9359 45.4626C94.0319 45.4265 94.1247 45.3904 94.2264 45.3507L94.227 45.3505C94.3133 45.3169 94.4061 45.2808 94.513 45.2399C94.5347 45.4757 94.5587 45.7068 94.5825 45.9347C94.6315 46.406 94.6792 46.8638 94.7016 47.3215C94.7127 47.4551 94.5574 47.6666 94.4353 47.7222C92.5487 48.5014 90.6066 48.7686 88.6201 48.2231C86.8334 47.7334 85.9012 46.431 85.6792 44.65C85.4018 42.3681 85.99 40.3088 87.5769 38.6168C89.286 36.8024 91.3834 36.1568 93.8027 36.8247C95.2787 37.2365 96.0667 38.3051 96.1554 39.8079C96.2442 41.2772 95.5784 42.3792 94.1911 43.0248C92.7928 43.6704 91.3058 43.7706 89.7965 43.804C89.4968 43.7929 89.1861 43.7929 88.8532 43.7929ZM89.1751 41.4218C89.3769 41.4091 89.5752 41.3992 89.7707 41.3893C90.2629 41.3646 90.7373 41.3408 91.2059 41.2771C91.6498 41.2214 92.0937 41.0878 92.4933 40.8986C92.9261 40.7094 93.1369 40.3086 93.0703 39.8189C93.0037 39.3514 92.693 39.1287 92.2602 39.0174C90.9507 38.6612 89.3193 39.8634 89.1751 41.4218ZM96.7657 45.8742C96.6214 46.6311 96.4883 47.3769 96.344 48.2006C96.5662 48.2006 96.7853 48.2011 97.0019 48.2015C97.8557 48.2033 98.6702 48.205 99.4846 48.1784C99.5623 48.1784 99.6844 47.9669 99.7066 47.8333C99.8198 47.2774 99.9247 46.7187 100.03 46.1602C100.223 45.1306 100.416 44.1016 100.661 43.0914C101.205 40.8428 102.126 40.0636 104.312 39.7742C104.401 39.7631 104.545 39.6629 104.567 39.585C104.707 38.9453 104.831 38.3008 104.961 37.6321C105.027 37.2885 105.095 36.9385 105.167 36.5795C103.058 36.3569 101.882 37.5814 100.861 39.0841L100.877 38.8682C100.927 38.2031 100.978 37.5263 101.038 36.8133C100.808 36.8133 100.581 36.8126 100.358 36.8119C99.7006 36.8098 99.071 36.8078 98.4414 36.8244C98.3527 36.8356 98.1862 37.0359 98.1751 37.1584C97.9383 40.0193 97.3779 42.8173 96.8179 45.6135L96.7657 45.8742Z" fill="black"/>
<path fill-rule="evenodd" clip-rule="evenodd" d="M67.3833 23.4179C67.271 23.3882 67.1586 23.3585 67.0462 23.3334C66.7022 23.3334 66.3582 23.3334 65.992 23.3445C65.8669 23.3696 65.7418 23.397 65.6157 23.4246C65.4621 23.4582 65.307 23.4921 65.1485 23.5226C63.4506 23.8455 61.8525 24.4354 60.31 25.2146C56.9696 26.9066 53.9732 29.0994 51.2876 31.693C49.5008 33.4073 47.7696 35.1994 46.0939 37.0361C43.153 40.2641 40.6338 43.815 38.6251 47.711C37.593 49.7258 36.6608 51.7851 36.2391 54.0224C36.1615 54.4343 36.2946 54.913 36.4278 55.3248C36.4833 55.4918 36.794 55.6142 37.0049 55.681C37.0604 55.7033 37.2268 55.425 37.3045 55.2692C37.3321 55.2088 37.3603 55.1469 37.3892 55.0837C37.8711 54.0279 38.5229 52.6001 39.0883 51.6549C40.2868 49.6513 41.2331 48.1006 42.5759 46.1971C44.7288 43.136 47.2444 40.1326 49.8857 37.4833C52.3826 34.9788 54.8832 32.7394 58.0238 31.0474C59.4665 30.2794 60.9425 29.5224 62.4518 28.8991C65.0598 27.8193 67.7787 27.0847 70.5753 26.6728C70.8749 26.6283 71.2745 26.3945 71.3743 26.1496C71.4631 25.927 71.2523 25.504 71.0414 25.2925C70.1869 24.4131 69.1881 23.7453 67.9452 23.5449C67.7579 23.5171 67.5706 23.4675 67.3833 23.4179ZM41.9766 38.6058C42.5093 37.1587 42.7757 35.656 42.809 34.0976C42.7942 33.9306 42.7818 33.7637 42.7695 33.5967C42.7448 33.2628 42.7202 32.9288 42.6758 32.5949C42.3762 30.0124 41.2664 27.8196 39.5019 25.9384C39.291 25.7269 39.0025 25.5599 38.7139 25.4597C38.4254 25.3484 38.2367 25.5154 38.2589 25.8493C38.2595 25.8564 38.26 25.8634 38.2605 25.8705C38.2822 26.1534 38.3047 26.4463 38.3588 26.7287C38.4368 27.1735 38.5142 27.6188 38.5917 28.0645C38.8671 29.6486 39.1432 31.2364 39.4464 32.8175C39.746 34.4093 40.0789 35.9899 40.4341 37.5595C40.5561 38.0604 40.7559 38.5613 41 39.0288C41.1887 39.385 41.455 39.3516 41.6992 39.0288C41.8102 38.8952 41.9211 38.7616 41.9766 38.6058Z" fill="#FC461E"/>
</svg>
