<svg width="118" height="80" viewBox="0 0 118 80" fill="none" xmlns="http://www.w3.org/2000/svg">
<path fill-rule="evenodd" clip-rule="evenodd" d="M33.5698 50.8031H28.3844C28.0296 50.8031 27.7278 51.061 27.6724 51.4112L25.5752 64.7081C25.5335 64.9705 25.7367 65.207 26.0029 65.207H28.4784C28.8332 65.207 29.135 64.9491 29.1904 64.5983L29.756 61.0119C29.8106 60.6607 30.1131 60.4032 30.4672 60.4032H32.1087C35.5245 60.4032 37.4958 58.7502 38.0108 55.4747C38.2428 54.0418 38.0207 52.9158 37.3494 52.127C36.6126 51.2614 35.3052 50.8031 33.5698 50.8031ZM34.168 55.6596C33.8845 57.5204 32.4628 57.5204 31.0882 57.5204H30.3057L30.8547 54.0453C30.8873 53.8354 31.0692 53.6807 31.2815 53.6807H31.6402C32.5766 53.6807 33.46 53.6807 33.9165 54.2144C34.1884 54.533 34.2719 55.006 34.168 55.6596ZM49.0702 55.6H46.587C46.3754 55.6 46.1926 55.7547 46.16 55.9649L46.0502 56.6593L45.8765 56.4077C45.3389 55.6274 44.1403 55.3667 42.9438 55.3667C40.1996 55.3667 37.8561 57.4449 37.3996 60.3604C37.1624 61.8144 37.4996 63.2049 38.3245 64.1748C39.0814 65.0663 40.1642 65.4379 41.4523 65.4379C43.6631 65.4379 44.8895 64.0162 44.8895 64.0162L44.7786 64.7063C44.7368 64.9702 44.94 65.2067 45.2045 65.2067H47.4414C47.7972 65.2067 48.0972 64.9488 48.1533 64.5979L49.4954 56.0989C49.5379 55.8375 49.3354 55.6 49.0702 55.6ZM45.6088 60.433C45.3691 61.8516 44.2431 62.8039 42.8074 62.8039C42.0863 62.8039 41.5098 62.5727 41.14 62.1344C40.773 61.6993 40.6333 61.0797 40.7502 60.3898C40.974 58.9832 42.1189 58 43.533 58C44.2379 58 44.8112 58.234 45.1888 58.6761C45.567 59.1228 45.7172 59.746 45.6088 60.433ZM59.7997 55.5997H62.2951C62.6446 55.5997 62.8485 55.9916 62.6499 56.2782L54.3505 68.2579C54.2162 68.452 53.9948 68.5674 53.7583 68.5674H51.266C50.9151 68.5674 50.7102 68.1723 50.9133 67.8849L53.4976 64.2372L50.7491 56.1712C50.654 55.8909 50.8611 55.5997 51.1593 55.5997H53.6112C53.9298 55.5997 54.2109 55.8088 54.3028 56.1137L55.7614 60.9853L59.2032 55.9158C59.3379 55.7179 59.5618 55.5997 59.7997 55.5997Z" fill="#253B80"/>
<path fill-rule="evenodd" clip-rule="evenodd" d="M86.8546 64.708L88.9827 51.1679C89.0153 50.9578 89.1974 50.803 89.409 50.8023H91.8048C92.0694 50.8023 92.2725 51.0395 92.2308 51.302L90.1322 64.5982C90.0774 64.949 89.7757 65.2069 89.4202 65.2069H87.2806C87.016 65.2069 86.8129 64.9704 86.8546 64.708ZM70.5567 50.803H65.3703C65.0163 50.803 64.7145 51.0609 64.6591 51.4111L62.5619 64.708C62.5202 64.9704 62.7233 65.2069 62.9882 65.2069H65.6493C65.8967 65.2069 66.1082 65.0266 66.1468 64.781L66.7419 61.0118C66.7967 60.6606 67.0991 60.4031 67.4532 60.4031H69.0939C72.5104 60.4031 74.4812 58.7501 74.9967 55.4746C75.2293 54.0416 75.0058 52.9157 74.3349 52.1269C73.5984 51.2613 72.2921 50.803 70.5567 50.803ZM71.1549 55.6595C70.8721 57.5202 69.4504 57.5202 68.0749 57.5202H67.2931L67.843 54.0451C67.8756 53.8353 68.056 53.6806 68.2689 53.6806H68.6275C69.5633 53.6806 70.4475 53.6806 70.9037 54.2143C71.176 54.5329 71.2588 55.0058 71.1549 55.6595ZM86.0557 55.5999H83.5742C83.3609 55.5999 83.1799 55.7546 83.1479 55.9648L83.0381 56.6592L82.8637 56.4076C82.3262 55.6273 81.1283 55.3666 79.9318 55.3666C77.1876 55.3666 74.8448 57.4448 74.3883 60.3603C74.1518 61.8143 74.4876 63.2048 75.3125 64.1746C76.0707 65.0662 77.1521 65.4378 78.4402 65.4378C80.6511 65.4378 81.877 64.016 81.877 64.016L81.7665 64.7062C81.7248 64.9701 81.9279 65.2066 82.1942 65.2066H84.43C84.7841 65.2066 85.0858 64.9487 85.1413 64.5978L86.4841 56.0988C86.5251 55.8374 86.322 55.5999 86.0557 55.5999ZM82.5946 60.4329C82.3563 61.8515 81.229 62.8038 79.7928 62.8038C79.0732 62.8038 78.4956 62.5725 78.1255 62.1343C77.7584 61.6992 77.6205 61.0796 77.736 60.3897C77.9609 58.9831 79.1044 57.9999 80.5185 57.9999C81.2237 57.9999 81.7967 58.2339 82.1746 58.676C82.5542 59.1227 82.7044 59.7459 82.5946 60.4329Z" fill="#179BD7"/>
<path d="M52.7598 46.0464L53.3974 41.9972L51.9774 41.9642H45.1966L49.9089 12.0848C49.9233 11.9946 49.971 11.9105 50.0405 11.8508C50.11 11.7911 50.1991 11.7581 50.2917 11.7581H61.7251C65.5209 11.7581 68.1402 12.548 69.5079 14.107C70.149 14.8384 70.5574 15.6026 70.7549 16.4437C70.962 17.3262 70.9658 18.3805 70.7634 19.6665L70.7486 19.7604V20.5843L71.39 20.9476C71.93 21.234 72.3588 21.5619 72.6879 21.9374C73.2367 22.5627 73.5914 23.3574 73.7413 24.2996C73.896 25.2687 73.8448 26.4218 73.5914 27.7272C73.2988 29.229 72.8258 30.5369 72.1872 31.6071C71.5995 32.5932 70.8511 33.4109 69.9627 34.0449C69.1142 34.647 68.1062 35.1042 66.9665 35.3969C65.8619 35.6842 64.603 35.8295 63.2219 35.8295H62.3321C61.696 35.8295 61.0777 36.0586 60.5928 36.4695C60.1065 36.8888 59.7844 37.4614 59.6858 38.0881L59.6188 38.4527L58.4925 45.5892L58.4412 45.8513C58.4279 45.9344 58.4047 45.9758 58.3707 46.0039C58.3402 46.0292 58.2963 46.0464 58.2535 46.0464H52.7598Z" fill="#253B80"/>
<path d="M71.9971 19.8559C71.963 20.0741 71.9241 20.2971 71.8802 20.5263C70.3722 28.2677 65.2139 30.942 58.6255 30.942H55.2711C54.4655 30.942 53.7865 31.527 53.6609 32.3218L51.9433 43.2142L51.457 46.3016C51.3753 46.8233 51.7777 47.2938 52.304 47.2938H58.2539C58.9584 47.2938 59.5567 46.7819 59.6676 46.0872L59.7262 45.7847L60.8465 38.6759L60.9185 38.2861C61.0279 37.5889 61.6276 37.077 62.3321 37.077H63.222C68.9862 37.077 73.4988 34.7366 74.8178 27.9641C75.3687 25.135 75.0834 22.7728 73.6255 21.1114C73.1844 20.6104 72.6371 20.1947 71.9971 19.8559Z" fill="#179BD7"/>
<path d="M70.4192 19.2272C70.189 19.1602 69.9511 19.0992 69.7072 19.0444C69.4623 18.9908 69.2111 18.9432 68.9529 18.9018C68.0483 18.7555 67.0574 18.686 65.9957 18.686H57.0342C56.8135 18.686 56.6041 18.736 56.4163 18.8262C56.003 19.0249 55.696 19.4162 55.6216 19.8952L53.7149 31.9699L53.6602 32.3221C53.7858 31.5274 54.4648 30.9423 55.2704 30.9423H58.6248C65.2132 30.9423 70.3718 28.2668 71.8795 20.5266C71.9244 20.2974 71.9623 20.0744 71.9964 19.8562C71.615 19.6539 71.2016 19.4808 70.7567 19.3333C70.6472 19.2967 70.5339 19.2614 70.4192 19.2272Z" fill="#222D65"/>
<path d="M55.6217 19.8951C55.6961 19.416 56.0034 19.0247 56.4164 18.8273C56.6055 18.7371 56.8139 18.6871 57.0343 18.6871H65.9961C67.0578 18.6871 68.0487 18.7566 68.9529 18.9028C69.2115 18.9443 69.4627 18.9918 69.7077 19.0454C69.9515 19.1003 70.1891 19.1613 70.4196 19.2283C70.534 19.2624 70.6473 19.2978 70.7582 19.3331C71.2031 19.4806 71.6164 19.6549 71.9978 19.856C72.4466 16.9952 71.9943 15.0474 70.4477 13.2836C68.7424 11.3419 65.6645 10.5106 61.7262 10.5106H50.2925C49.488 10.5106 48.802 11.0956 48.6774 11.8916L43.9153 42.0782C43.8213 42.6754 44.282 43.2144 44.8841 43.2144H51.9431L53.7153 31.9697L55.6217 19.8951Z" fill="#253B80"/>
</svg>
