<svg width="118" height="80" viewBox="0 0 118 80" fill="none" xmlns="http://www.w3.org/2000/svg">
<path fill-rule="evenodd" clip-rule="evenodd" d="M63.5879 27.1397L57.6615 28.4116V23.6067L63.5879 22.3584V27.1397ZM39.5043 25.0907L33.7431 26.3155L33.7195 45.1818C33.7195 48.6677 36.3403 51.2351 39.8348 51.2351C41.7709 51.2351 43.1876 50.8818 43.9668 50.4578V45.6765C43.2112 45.9826 39.4806 47.0661 39.4806 43.5802V35.2187H43.9668V30.2018H39.4806L39.5043 25.0907ZM25.5503 34.9125C24.2989 34.9125 23.5434 35.2658 23.5434 36.1844C23.5434 37.1874 24.8437 37.6286 26.4569 38.1759C29.0868 39.0682 32.5482 40.2426 32.5629 44.593C32.5629 48.8091 29.1865 51.2351 24.2753 51.2351C22.2448 51.2351 20.0253 50.8347 17.8295 49.8925V44.2868C19.8128 45.3703 22.3156 46.1711 24.2753 46.1711C25.5976 46.1711 26.542 45.8178 26.542 44.7343C26.542 43.6234 25.1324 43.1156 23.4307 42.5025C20.839 41.5689 17.5697 40.3912 17.5697 36.4671C17.5697 32.2981 20.7573 29.8014 25.5503 29.8014C27.5101 29.8014 29.4462 30.1076 31.4059 30.8849V36.42C29.6115 35.4543 27.3448 34.9125 25.5503 34.9125ZM51.3102 31.9445L50.9324 30.2016H45.8324V50.8108H51.7352V36.8436C53.1282 35.03 55.4894 35.3598 56.2213 35.6188V30.2016C55.4657 29.9189 52.7032 29.4007 51.3102 31.9445ZM57.661 30.2018H63.5875V50.8111H57.661V30.2018ZM102.57 40.5889C102.57 34.5592 99.642 29.8014 94.0461 29.8014C88.4267 29.8014 85.0267 34.5592 85.0267 40.5418C85.0267 47.6314 89.0406 51.2115 94.8017 51.2115C97.6114 51.2115 99.7364 50.5756 101.342 49.6805V44.9699C99.7364 45.7707 97.8947 46.2653 95.5572 46.2653C93.267 46.2653 91.2364 45.4645 90.9767 42.6852H102.523C102.523 42.5554 102.531 42.2604 102.541 41.9207L102.541 41.9199L102.541 41.9189L102.541 41.9178C102.554 41.4568 102.57 40.9139 102.57 40.5889ZM90.9057 38.3514C90.9057 35.6899 92.5349 34.5828 94.0224 34.5828C95.4627 34.5828 96.9974 35.6899 96.9974 38.3514H90.9057ZM71.2847 31.6386C72.1111 30.8849 73.5986 29.8014 75.9125 29.8014C80.0445 29.8014 83.9403 33.5229 83.9639 40.3534C83.9639 47.8199 80.1153 51.2116 75.8889 51.2116C73.8111 51.2116 72.5597 50.3401 71.7097 49.7277L71.6861 56.3933L65.7833 57.6417V30.1783H70.9778L71.2847 31.6386ZM71.7096 44.9225C72.2763 45.5349 73.1027 46.0295 74.4957 46.0295C76.668 46.0295 78.1318 43.6741 78.1318 40.518C78.1318 37.4325 76.6443 35.03 74.4957 35.03C73.1499 35.03 72.2999 35.5011 71.686 36.1842L71.7096 44.9225Z" fill="#6461FC"/>
</svg>
