<svg width="25" height="27" viewBox="0 0 25 27" fill="none" xmlns="http://www.w3.org/2000/svg">
<path fill-rule="evenodd" clip-rule="evenodd" d="M1.15639 1.60118C1.03827 1.86868 0.973022 2.19645 0.973022 2.5777V24.6937C0.973022 25.0758 1.03835 25.4036 1.15661 25.671L13.1905 13.6353L1.15639 1.60118ZM1.85161 26.3902C2.29766 26.5811 2.87953 26.5205 3.51402 26.1607L17.6711 18.1159L13.8976 14.3424L1.85161 26.3902ZM18.5736 17.6042L23.015 15.0807C24.412 14.2857 24.412 12.9867 23.015 12.1927L18.5716 9.66783L14.6047 13.6353L18.5736 17.6042ZM17.6698 9.15541L3.51402 1.11171C2.87949 0.751133 2.29759 0.690969 1.85153 0.882108L13.8976 12.9282L17.6698 9.15541Z" fill="white"/>
</svg>
