<svg width="46" height="34" viewBox="0 0 46 34" fill="none" xmlns="http://www.w3.org/2000/svg">
<path d="M33.5 9.79437V8.75C33.5 4.0475 26.4069 0.5 17 0.5C7.59313 0.5 0.5 4.0475 0.5 8.75V16.25C0.5 20.1669 5.42188 23.2794 12.5 24.2113V25.25C12.5 29.9525 19.5931 33.5 29 33.5C38.4069 33.5 45.5 29.9525 45.5 25.25V17.75C45.5 13.8687 40.7337 10.7525 33.5 9.79437ZM9.5 20.5381C5.82687 19.5125 3.5 17.8231 3.5 16.25V13.6119C5.03 14.6956 7.07938 15.5694 9.5 16.1562V20.5381ZM24.5 16.1562C26.9206 15.5694 28.97 14.6956 30.5 13.6119V16.25C30.5 17.8231 28.1731 19.5125 24.5 20.5381V16.1562ZM21.5 29.5381C17.8269 28.5125 15.5 26.8231 15.5 25.25V24.4681C15.9931 24.4869 16.4919 24.5 17 24.5C17.7275 24.5 18.4381 24.4756 19.1356 24.4344C19.9105 24.7118 20.6998 24.9471 21.5 25.1394V29.5381ZM21.5 21.1719C20.0101 21.392 18.506 21.5016 17 21.5C15.494 21.5016 13.9899 21.392 12.5 21.1719V16.7113C13.9921 16.9057 15.4953 17.0021 17 17C18.5047 17.0021 20.0079 16.9057 21.5 16.7113V21.1719ZM33.5 30.1719C30.5159 30.6094 27.4841 30.6094 24.5 30.1719V25.7C25.9916 25.9005 27.495 26.0007 29 26C30.5047 26.0021 32.0079 25.9057 33.5 25.7113V30.1719ZM42.5 25.25C42.5 26.8231 40.1731 28.5125 36.5 29.5381V25.1562C38.9206 24.5694 40.97 23.6956 42.5 22.6119V25.25Z" fill="#AD6B00"/>
</svg>
