<svg width="21" height="25" viewBox="0 0 21 25" fill="none" xmlns="http://www.w3.org/2000/svg">
<path d="M17.2459 13.3309C17.2697 11.4818 18.2628 9.73217 19.8381 8.76366C18.8443 7.34431 17.1797 6.4444 15.4478 6.39021C13.6007 6.19632 11.8099 7.49552 10.8686 7.49552C9.90914 7.49552 8.45989 6.40946 6.89928 6.44157C4.86511 6.50729 2.96874 7.66381 1.97907 9.44222C-0.148327 13.1255 1.43852 18.5386 3.47639 21.5159C4.49598 22.9738 5.68759 24.6023 7.24679 24.5445C8.77255 24.4813 9.3424 23.5716 11.1841 23.5716C13.0088 23.5716 13.5434 24.5445 15.1342 24.5078C16.7714 24.4813 17.803 23.0435 18.7868 21.5718C19.5194 20.533 20.0831 19.3849 20.4571 18.17C18.533 17.3562 17.2481 15.42 17.2459 13.3309Z" fill="white"/>
<path d="M14.2411 4.43221C15.1337 3.36058 15.5735 1.98318 15.467 0.592529C14.1032 0.735772 12.8434 1.38759 11.9387 2.4181C11.054 3.42496 10.5936 4.77813 10.6806 6.11563C12.0449 6.12968 13.3861 5.49553 14.2411 4.43221Z" fill="white"/>
</svg>
